# xmcd
#
# Track frame offsets: 
#        150
#        41552
#        79953
#        102605
#        134406
#        170483
#        211436
#        261388
#        289285
#
# Disc length: 4184 seconds
#
# Revision: 0
# Processed by: cddbd v1.5.2PL0 Copyright (c) Steve Scherf et al.
# Submitted via: ExactAudioCopy v0.99pb4
#
DISCID=8f105609
DTITLE=Various Artist - 2020 Vision - Compilation Two
DYEAR=1998
DGENRE=House
TTITLE0=Wulf+Bear - Raptures Of The Deep
TTITLE1=Lifeforce - Lifeforce (2020 Mix)
TTITLE2=Urb-N-Ri - Aquans Realm
TTITLE3=Wulf+Bear v Random Factor - Spanish Fly
TTITLE4=Dino+Terry - Recess
TTITLE5=Uni - Soulsearcher (4am Mix)
TTITLE6=Wulf+Bear - Bodymusic revisited
TTITLE7=Fred Everything - Without
TTITLE8=Random Factor - Crumble
EXTD=
EXTT0=
EXTT1=
EXTT2=
EXTT3=
EXTT4=
EXTT5=
EXTT6=
EXTT7=
EXTT8=
PLAYORDER=
